<svg width="1464" height="326" viewBox="0 0 1464 326" fill="none" xmlns="http://www.w3.org/2000/svg">
<path d="M45.5 10C45.5 10 270.326 10 538.5 10M10 315.5C10 292.5 21 280 45.5 280C55.3356 280 276.217 280 538.5 280M538.5 10V33M538.5 10C690.247 10 855.874 10 1002.5 10M1002.5 10C1234.06 10 1418.23 10 1425.5 10C1445.5 10 1454 23 1454 38.5C1454 54 1454 231 1454 251.5C1454 272 1447 280 1425.5 280C1417.63 280 1233.68 280 1002.5 280M1002.5 10V33M1002.5 280V305M1002.5 280C855.881 280 690.26 280 538.5 280M538.5 280V305" stroke="#F0E8E0" stroke-width="20" stroke-linecap="round" stroke-linejoin="round"/>
</svg>
